ply
format ascii 1.0
element vertex 1248
property float x
property float y
property float z
end_header
-0.133621 1.151676 0.020481
-0.131532 1.178557 0.004559
-0.128403 1.138579 0.015898
-0.126347 1.158921 -0.000260
-0.125256 1.138113 0.028807
-0.122526 1.185840 -0.032901
-0.119228 1.152916 -0.021411
-0.116914 1.160639 -0.044238
-0.115024 1.116657 -0.018446
-0.114785 1.105154 0.019343
-0.112748 1.099287 0.002149
-0.109171 1.199069 -0.071761
-0.108912 1.107246 -0.031264
-0.108546 1.075820 0.005629
-0.108247 0.831363 0.064779
-0.107133 0.788551 0.054509
-0.106338 1.135068 -0.066429
-0.105914 1.123090 -0.080785
-0.105334 1.081723 0.018742
-0.104030 0.867719 0.070646
-0.103988 0.894839 0.071700
-0.103966 0.908399 0.072227
-0.103903 0.949079 0.073809
-0.103759 1.081128 -0.036318
-0.102980 0.777391 0.058520
-0.102854 1.091310 -0.044300
-0.102793 1.130625 -0.042772
-0.101952 1.114511 -0.051759
-0.101901 1.147202 -0.050488
-0.101740 0.822461 0.051675
-0.101328 1.083433 -0.015054
-0.101134 1.064709 0.022481
-0.101011 1.176742 -0.057682
-0.099832 1.211409 -0.083969
-0.098933 0.698375 0.059892
-0.098891 0.725494 0.060946
-0.098689 0.854313 0.065955
-0.098636 0.888213 0.067273
-0.098540 0.949232 0.069645
-0.098087 1.049569 -0.003557
-0.097072 1.073243 -0.011084
-0.096493 1.169610 -0.026333
-0.096474 0.775354 0.045692
-0.095320 0.786637 0.037560
-0.095181 1.074080 -0.027895
-0.094855 0.639400 0.062044
-0.094812 0.666576 0.063100
-0.094284 1.157592 -0.079056
-0.093381 1.074858 -0.044639
-0.093230 0.915486 0.064163
-0.093156 0.962945 0.066008
-0.093103 0.996845 0.067326
-0.091705 1.125226 -0.076714
-0.091369 0.984462 0.088543
-0.091359 0.991285 0.088809
-0.090299 1.176507 -0.012438
-0.089949 0.813739 0.034470
-0.089706 0.968696 0.040494
-0.088619 0.959369 0.031588
-0.088566 0.992984 0.032894
-0.087764 1.104759 -0.098430
-0.087697 1.024118 0.064217
-0.087438 1.023867 0.025568
-0.087407 -0.800760 -0.025618
-0.086550 0.616198 0.070030
-0.085687 0.843174 0.040024
-0.084461 0.914950 0.034261
-0.084105 0.311724 0.071295
-0.084041 0.352830 0.072893
-0.083912 0.435042 0.076090
-0.083890 0.448744 0.076622
-0.083848 0.476148 0.077688
-0.083683 1.171447 -0.012875
-0.082951 0.631036 0.044765
-0.082909 0.658156 0.045819
-0.082773 0.365225 0.064718
-0.082730 0.392572 0.065781
-0.082570 0.495124 0.069768
-0.082537 0.515634 0.070565
-0.082484 0.549818 0.071894
-0.082368 1.030107 -0.016561
-0.081623 0.059725 0.074636
-0.081383 0.899786 0.046634
-0.081184 0.961033 0.010499
-0.081121 1.001201 0.012061
-0.080030 0.258150 0.073666
-0.079955 -0.829680 -0.032700
-0.079728 1.199443 -0.075638
-0.078729 0.284475 0.066022
-0.077493 0.692209 0.042973
-0.077440 0.726108 0.044291
-0.077046 0.883285 0.011851
-0.077033 0.577320 0.068758
-0.077004 0.910120 0.012894
-0.076940 0.950373 0.014459
-0.076214 0.039242 0.069608
-0.075912 0.231866 0.077097
-0.075901 0.238745 0.077364
-0.075655 -0.414485 0.043293
-0.075082 -0.845784 0.017868
-0.075007 -0.797827 0.019732
-0.073968 -0.681038 -0.020372
-0.073962 -0.912943 0.006616
-0.073683 -0.735187 0.013527
-0.073391 0.619633 0.044561
-0.072960 0.771580 0.011882
-0.072929 0.791749 0.012666
-0.072896 -1.000287 -0.005402
-0.072865 0.832087 0.014235
-0.072813 0.865703 0.015541
-0.072802 0.872426 0.015803
-0.072735 -0.897948 -0.001424
-0.072693 -0.870658 -0.000362
-0.072594 1.082020 -0.060515
-0.072584 1.088586 -0.060260
-0.072249 1.181597 -0.067081
-0.072237 -0.077170 0.069535
-0.072204 0.644903 0.036964
-0.072151 0.678802 0.038282
-0.072130 0.692362 0.038810
-0.072088 0.719482 0.039864
-0.072075 0.026234 0.073556
-0.071969 0.358698 0.056054
-0.071953 1.145818 -0.048140
-0.071945 0.108958 0.076771
-0.071883 0.413392 0.058181
-0.071816 0.191681 0.079988
-0.071786 0.474923 0.060573
-0.071776 0.481760 0.060839
-0.071647 0.563801 0.064028
-0.071636 0.570638 0.064294
-0.071495 -0.421523 0.047464
-0.071419 -0.373367 0.049336
-0.071347 1.134255 -0.058793
-0.071020 -0.118829 0.059232
-0.070928 1.040874 -0.032711
-0.070913 0.751247 0.032537
-0.070908 1.054122 -0.032196
-0.070874 1.173285 0.000583
-0.070751 0.053157 0.065918
-0.070688 0.901084 -0.000066
-0.070655 -0.688938 0.028401
-0.070636 0.934558 0.001235
-0.070567 0.170107 0.070465
-0.070562 0.981420 0.003057
-0.070546 0.183866 0.071000
-0.070532 0.507501 0.053216
-0.070514 0.204504 0.071802
-0.070503 1.110379 -0.087408
-0.070493 -0.585960 0.032404
-0.070408 1.211758 -0.087821
-0.070235 -0.421195 0.038810
-0.069674 -0.852480 0.013394
-0.069631 -0.825076 0.014459
-0.069545 -0.770268 0.016590
-0.069537 1.188504 0.031440
-0.069534 0.998812 -0.004733
-0.069354 0.505894 0.044548
-0.069343 0.512702 0.044813
-0.069316 -0.027798 0.084618
-0.069224 -0.814668 -0.026819
-0.069202 0.237865 0.064432
-0.068737 -1.029014 -0.002101
-0.068723 -1.264782 -0.050002
-0.068701 -1.251251 -0.049476
-0.068619 -0.953809 0.000823
-0.068597 -0.940136 0.001354
-0.068584 1.164823 -0.098749
-0.068319 -0.762379 0.008265
-0.068276 -0.735032 0.009328
-0.068196 -0.152619 0.071055
-0.068145 0.538257 0.037219
-0.068038 0.606198 0.039860
-0.067947 0.006261 0.077232
-0.067881 0.291636 0.057874
-0.067859 0.305338 0.058407
-0.067827 0.325891 0.059206
-0.067614 -0.831505 -0.035134
-0.067607 -0.971596 -0.075620
-0.066763 -0.063227 0.065838
-0.066595 1.133744 -0.038005
-0.066464 0.420384 0.054248
-0.066317 -0.991790 -0.017865
-0.066280 -0.565835 0.037622
-0.066215 -0.524559 0.039227
-0.066102 -1.011596 -0.079569
-0.066010 -0.393850 0.044309
-0.065978 -0.373212 0.045111
-0.065730 1.128623 -0.079358
-0.065371 0.357559 0.043191
-0.065285 0.412139 0.045313
-0.065192 -0.668187 0.024985
-0.065180 0.135866 0.064903
-0.065149 -0.640726 0.026053
-0.065018 -0.895153 -0.022687
-0.064976 -0.867976 -0.021630
-0.064665 0.627738 0.015039
-0.064612 0.661495 0.016351
-0.064346 -0.787627 -0.022244
-0.064297 -0.318368 0.069065
-0.064264 -0.297602 0.069872
-0.064159 -0.790666 0.011583
-0.064149 1.092450 -0.021012
-0.063409 0.747128 0.011162
-0.063350 -1.042533 -0.006831
-0.062948 1.193886 -0.079239
-0.062505 -0.007398 0.072453
-0.062315 1.013531 -0.025130
-0.062146 -1.027268 -0.014843
-0.061980 -0.490476 0.044988
-0.061937 -0.462902 0.046060
-0.061585 0.577410 0.026001
-0.061271 0.283803 0.044733
-0.060785 -0.531283 0.034735
-0.060345 0.760438 -0.014737
-0.060232 1.198868 0.052319
-0.060166 -1.227912 -0.039802
-0.060061 -0.269774 0.075407
-0.059917 -0.661241 -0.016683
-0.059793 0.473697 0.043510
-0.059505 -0.877004 -0.062024
-0.059346 0.614388 0.010367
-0.059039 0.952351 -0.014756
-0.059008 0.972392 -0.013977
-0.058600 -0.701448 0.010839
-0.058583 -0.165926 0.070734
-0.058514 -0.646640 0.012969
-0.058482 -0.626087 0.013768
-0.058460 -0.612385 0.014301
-0.058028 -1.097072 -0.013156
-0.057084 -0.034873 0.067136
-0.056899 -1.122630 -0.022747
-0.056632 -0.952065 -0.016115
-0.056621 -0.945243 -0.015850
-0.056596 -0.933585 -0.074153
-0.055920 -1.273752 -0.075691
-0.055878 -1.246803 -0.074643
-0.055820 0.311305 0.041597
-0.055799 0.324978 0.042129
-0.055627 0.434367 0.046382
-0.055613 -0.634281 -0.023688
-0.055444 -0.996242 -0.073330
-0.054782 -1.220964 -0.043710
-0.054675 -1.153023 -0.041069
-0.054609 0.728118 -0.016522
-0.054545 1.166613 0.006657
-0.054520 -0.234935 0.072495
-0.053762 -0.951077 -0.071223
-0.053245 0.025510 0.043510
-0.053202 0.052971 0.044578
-0.053148 0.087297 0.045912
-0.052798 1.154913 -0.017178
-0.052763 0.691478 -0.016042
-0.052556 -1.055897 -0.015760
-0.051912 -0.221229 0.055642
-0.051699 0.244144 0.043387
-0.051449 -1.088362 -0.025610
-0.050977 0.503138 0.014774
-0.050966 0.509918 0.015037
-0.050924 0.537038 0.016092
-0.050826 -0.331611 0.042684
-0.050689 0.654585 -0.015674
-0.050449 -1.175153 -0.037555
-0.050359 -1.203608 -0.104262
-0.049818 0.893323 -0.028790
-0.049623 0.681840 -0.014168
-0.049507 0.901691 -0.016512
-0.049376 -1.200428 -0.047091
-0.049280 -1.139281 -0.044713
-0.049241 -1.180680 -0.097053
-0.049212 -0.090688 0.043402
-0.049205 -1.237591 -0.135177
-0.048911 0.821773 -0.017159
-0.048773 -0.585338 0.015540
-0.048549 0.688960 0.004962
-0.048165 -1.123891 -0.052650
-0.047836 0.011935 0.038760
-0.047835 -0.913713 -0.044479
-0.047664 0.121778 0.043030
-0.047599 0.162969 0.044632
-0.047535 0.204160 0.046233
-0.046926 0.362224 0.013661
-0.046387 0.175789 0.036516
-0.045539 -0.760725 -0.017069
-0.045496 -0.733434 -0.016008
-0.045476 0.591431 0.014036
-0.045270 0.843943 -0.014435
-0.044971 1.077846 -0.094104
-0.044262 1.080596 -0.012995
-0.043831 -1.091568 -0.047037
-0.043802 -0.111171 0.038375
-0.043767 -1.050803 -0.045452
-0.043738 -0.069894 0.039979
-0.043662 -0.021738 0.041851
-0.043289 -0.550857 0.012658
-0.043245 -0.523396 0.013726
-0.043170 -0.475340 0.015594
-0.042941 -1.229315 -0.143366
-0.042908 -1.191536 -0.059450
-0.042653 -1.028818 -0.053124
-0.042621 -1.250534 -0.111163
-0.042600 -0.994919 -0.051806
-0.042598 0.397731 0.019407
-0.042557 -0.084023 0.030807
-0.042428 -0.001640 0.034010
-0.042388 -0.859320 -0.046534
-0.042370 0.900888 -0.023956
-0.042342 -0.283131 0.053405
-0.042322 -0.687281 -0.001251
-0.042320 -0.269287 0.053944
-0.042300 -0.673579 -0.000719
-0.042298 0.080742 0.037213
-0.042288 0.087607 0.037480
-0.042211 -0.200066 0.056635
-0.042208 0.689727 -0.008966
-0.042182 -0.598218 0.002211
-0.042168 -0.172378 0.057711
-0.042161 -0.584516 0.002744
-0.042154 1.023538 -0.032719
-0.042136 0.720789 -0.006436
-0.042083 0.218046 0.042551
-0.042053 -0.516006 0.005407
-0.042042 0.071510 -0.000403
-0.041874 1.081295 -0.087157
-0.041869 -1.203125 -0.068410
-0.041784 1.153576 -0.020170
-0.041738 0.165872 0.006093
-0.041736 1.168450 0.020115
-0.041656 -0.975659 -0.068906
-0.041488 0.925795 -0.012377
-0.041456 -0.939262 -0.058152
-0.041403 -0.905434 -0.056837
-0.041355 -0.809463 -0.014589
-0.041326 1.109801 -0.019816
-0.041262 0.317536 0.006340
-0.041183 0.038925 0.026982
-0.041125 -0.310718 0.043666
-0.041055 -0.618033 -0.007147
-0.041033 0.134839 0.030711
-0.041022 0.792662 -0.012107
-0.041011 0.148541 0.031243
-0.040968 0.175945 0.032308
-0.040855 -0.138022 0.050380
-0.040842 -1.207906 -0.077087
-0.040842 -1.078046 -0.095267
-0.040813 1.034498 -0.011536
-0.040773 1.195639 0.065362
-0.040746 -1.233629 -0.135361
-0.040730 -1.268235 -0.153342
-0.040619 1.119300 -0.091571
-0.040426 -1.254849 -0.103157
-0.040382 0.984281 -0.040451
-0.040334 1.051222 -0.048399
-0.040306 -0.852392 -0.036937
-0.040274 0.259272 0.001443
-0.040262 0.496665 0.006182
-0.040209 0.530565 0.007500
-0.040187 0.544125 0.008028
-0.040078 -0.719635 -0.019668
-0.040046 -0.699167 -0.018872
-0.039993 -0.665054 -0.017546
-0.039963 0.844095 -0.018556
-0.039939 -0.630941 -0.016219
-0.039899 -0.317511 0.034753
-0.039779 -1.187918 -0.097678
-0.039759 -0.227894 0.038237
-0.039748 -0.221001 0.038505
-0.039704 0.243401 0.026343
-0.039659 0.891638 -0.021980
-0.039659 -1.279577 -0.041900
-0.039586 -0.117596 0.042525
-0.039560 -1.055442 -0.088312
-0.039452 1.068268 -0.056088
-0.039127 1.152418 -0.106778
-0.039051 0.680086 -0.007081
-0.039038 0.603320 0.001820
-0.039028 -0.759535 -0.029772
-0.038853 0.942162 -0.023174
-0.038837 -1.141760 -0.094999
-0.038604 0.820063 -0.010249
-0.038528 0.269637 0.018793
-0.038421 0.337863 0.021445
-0.038292 0.419734 0.024628
-0.038264 -0.049100 0.036557
-0.038249 0.447024 0.025689
-0.037989 -0.792472 -0.039588
-0.037953 0.635253 -0.005431
-0.037906 -1.228791 -0.103270
-0.037840 0.993039 -0.029609
-0.037829 1.205652 -0.079785
-0.037757 1.102103 -0.071424
-0.037708 -0.454589 0.012178
-0.037675 -0.433993 0.012979
-0.037638 1.169799 -0.060805
-0.037589 -0.379071 0.015114
-0.037546 -0.351611 0.016182
-0.037535 -1.184603 -0.063350
-0.037461 -1.137144 -0.061505
-0.037450 -1.130364 -0.061242
-0.037397 -1.096464 -0.059924
-0.037354 -1.069344 -0.058869
-0.037295 -0.708795 -0.011457
-0.037288 0.350226 0.013373
-0.037269 -1.015105 -0.056761
-0.037245 0.377460 0.014432
-0.037235 0.602507 -0.024024
-0.037212 0.292491 0.012025
-0.037138 -0.399104 -0.025791
-0.037030 -0.022081 0.028993
-0.037014 -0.852387 -0.050435
-0.036972 -0.825267 -0.049380
-0.036919 1.160190 0.003193
-0.036908 -0.784587 -0.047799
-0.036677 -0.543255 0.000135
-0.036591 -0.488447 0.002265
-0.036533 1.133497 -0.051243
-0.035999 -0.272777 -0.012202
-0.035694 0.799537 -0.015975
-0.035662 0.819706 -0.015191
-0.035607 -0.276022 0.040767
-0.035558 0.859792 -0.013633
-0.035542 1.175348 0.034010
-0.035456 -0.179313 0.044527
-0.035131 0.982909 -0.012001
-0.034813 0.189527 0.008295
-0.034771 0.578178 0.005182
-0.034640 0.024779 0.013639
-0.034570 1.199247 -0.067899
-0.034569 0.578669 -0.018066
-0.034532 0.093147 0.016297
-0.034511 -0.610319 -0.019614
-0.034388 1.088564 -0.082654
-0.034179 0.318760 0.025068
-0.034172 1.127695 -0.030162
-0.034165 -0.138121 0.037488
-0.034044 -0.916066 -0.078359
-0.032859 -0.215550 -0.015948
-0.032829 0.130047 0.002773
-0.032558 -1.201803 -0.106347
-0.032514 -1.271684 -0.060638
-0.032094 -0.337725 0.012499
-0.031955 -0.248477 0.015969
-0.031831 1.086419 -0.013265
-0.031795 0.541012 -0.018023
-0.031477 0.721094 -0.014711
-0.031444 0.937128 -0.010854
-0.031414 0.761518 -0.013140
-0.031204 -0.859354 -0.037538
-0.030549 -0.090934 0.013506
-0.030474 -0.042977 0.015370
-0.030412 -1.212761 -0.159743
-0.030369 0.388361 0.004134
-0.029897 -1.038813 -0.078818
-0.029844 -1.005055 -0.077506
-0.029779 0.897115 -0.008057
-0.029243 0.018097 0.009174
-0.029171 -0.352710 -0.016679
-0.028726 -0.922651 -0.082759
-0.028374 -1.102986 -0.093071
-0.027942 1.197480 0.078843
-0.027356 -1.268740 -0.113075
-0.027134 -0.724223 -0.045291
-0.027102 -0.703840 -0.044499
-0.027079 0.999952 -0.008719
-0.026522 1.074411 -0.003263
-0.026462 -0.573116 -0.021807
-0.026460 -0.207130 0.013354
-0.026374 -0.152209 0.015489
-0.026357 0.452660 0.008981
-0.026064 0.775145 -0.016754
-0.024714 -0.542364 -0.016820
-0.024650 -0.501344 -0.015225
-0.024628 -0.487670 -0.014693
-0.024507 -0.311462 -0.005803
-0.023513 0.223355 0.012950
-0.023065 0.367575 0.017900
-0.022103 0.420197 0.012058
-0.022010 1.205130 -0.068172
-0.021816 0.709978 -0.014982
-0.021803 -0.751246 -0.050520
-0.021654 -0.656128 -0.046823
-0.020900 -0.124592 0.012341
-0.020410 -0.449501 -0.029212
-0.020113 -0.979244 -0.076350
-0.019857 1.139550 -0.106904
-0.019625 -0.035816 0.007222
-0.019449 -0.181408 -0.006160
-0.019102 -0.412311 -0.015968
-0.017542 -1.189883 -0.109857
-0.016117 1.172125 0.047032
-0.015071 0.649438 -0.023506
-0.012277 -0.120147 -0.012400
-0.012243 0.012124 -0.003447
-0.012209 1.050034 -0.039567
-0.012207 -1.290051 -0.155226
-0.012160 0.966318 -0.015905
-0.012142 0.692040 -0.015536
-0.012119 -0.313518 0.002502
-0.012098 -0.172324 0.000456
-0.012009 0.091648 0.017679
-0.012008 -1.247749 -0.106142
-0.012003 -1.271981 -0.034424
-0.012001 -0.712723 -0.005149
-0.011899 0.365722 0.025385
-0.011866 0.065733 -0.010115
-0.011823 0.093023 -0.009054
-0.011700 0.931391 -0.014531
-0.011585 1.190797 0.084927
-0.011567 0.256765 -0.002688
-0.011534 0.277232 -0.001892
-0.011475 0.748071 0.012785
-0.011460 0.324990 -0.000035
-0.011390 -1.209630 -0.099553
-0.011385 0.372748 0.001821
-0.011385 0.452641 0.000957
-0.011353 0.393216 0.002617
-0.011344 1.163859 0.030063
-0.011342 -1.207905 -0.123088
-0.011309 -0.890197 -0.047085
-0.011145 0.944129 -0.009363
-0.011103 0.730538 -0.022488
-0.011076 -0.764526 -0.059394
-0.011033 -0.737350 -0.058337
-0.010980 -0.703379 -0.057017
-0.010917 1.119636 -0.099279
-0.010906 -0.655820 -0.055168
-0.010877 1.079537 -0.051240
-0.010659 -1.251590 -0.087699
-0.010613 0.523240 0.000602
-0.010596 0.278392 0.028939
-0.010556 -1.272856 -0.133991
-0.010331 -0.309642 -0.003298
-0.010288 -0.282181 -0.002230
-0.010234 -0.247855 -0.000896
-0.010200 -0.851619 -0.071254
-0.010169 -0.206664 0.000706
-0.010137 -0.810940 -0.069672
-0.010105 -0.790600 -0.068882
-0.009954 0.671595 -0.018210
-0.009841 0.637931 -0.014313
-0.009756 1.137478 -0.033916
-0.009676 -1.148080 -0.091236
-0.009644 -1.127783 -0.090447
-0.009588 -0.100162 -0.007435
-0.009459 0.234686 0.020113
-0.009444 0.775225 0.004033
-0.009421 -0.439714 -0.016908
-0.009421 -0.985703 -0.084924
-0.009347 1.175144 -0.049501
-0.009271 -0.343801 -0.013179
-0.009237 1.140278 -0.008064
-0.009084 0.505978 -0.010000
-0.009044 0.537545 -0.003222
-0.009030 1.103750 -0.012056
-0.008999 0.867529 -0.034006
-0.008989 0.874252 -0.033744
-0.008949 -0.138271 -0.005188
-0.008947 0.901144 -0.032699
-0.008910 0.772728 -0.017436
-0.008851 0.711968 0.003627
-0.008809 -0.049208 -0.001726
-0.008788 -0.035506 -0.001193
-0.008709 0.899441 0.003695
-0.008657 -0.647080 -0.009348
-0.008621 -1.092213 -0.097504
-0.008566 -0.589758 -0.031276
-0.008555 -0.582921 -0.031011
-0.008464 -1.255905 -0.079694
-0.008416 -0.494043 -0.027555
-0.008415 -1.280254 -0.007768
-0.008388 -0.943680 -0.091729
-0.008276 -0.405164 -0.024100
-0.008264 -1.213990 -0.154465
-0.008154 0.189794 0.031932
-0.008011 0.545045 -0.016956
-0.007954 0.340877 0.031223
-0.007947 0.585725 -0.015374
-0.007862 0.639964 -0.013265
-0.007820 0.667084 -0.012211
-0.007811 -1.178057 -0.109263
-0.007775 1.082991 -0.044281
-0.007748 0.442584 0.002750
-0.007722 0.864022 0.004925
-0.007672 0.080975 0.019328
-0.007569 0.046063 -0.006557
-0.007550 -0.623192 -0.041094
-0.007466 0.311929 0.028994
-0.007441 1.061353 -0.037657
-0.007430 0.134941 -0.003102
-0.007387 0.162288 -0.002039
-0.007344 0.189636 -0.000976
-0.007324 0.827980 0.015854
-0.007322 0.203309 -0.000444
-0.006954 0.840999 0.021204
-0.006827 1.182472 0.067874
-0.006637 0.598442 0.000478
-0.006609 0.913536 0.006510
-0.006470 0.065887 -0.014305
-0.006269 -1.260219 -0.071689
-0.006151 1.143716 -0.001140
-0.006084 0.311499 -0.004756
-0.006061 -1.049356 -0.073499
-0.005678 0.784703 -0.024534
-0.005438 -0.896722 -0.102876
-0.005363 0.115585 0.019984
-0.005260 -1.272705 -0.138103
-0.005229 -1.252621 -0.137322
-0.004891 -0.885365 -0.076736
-0.004887 1.107963 -0.043990
-0.004838 -0.851466 -0.075418
-0.004749 -0.779749 -0.026323
-0.004736 0.805523 0.012463
-0.004695 0.809442 -0.031994
-0.004681 1.056892 0.002897
-0.004111 0.755858 0.017819
-0.004059 -0.978784 -0.088816
-0.004053 1.163039 -0.039364
-0.004043 0.831634 0.023215
-0.003830 -0.329943 -0.016854
-0.003787 -0.302539 -0.015788
-0.003745 -0.275135 -0.014723
-0.003700 0.512926 -0.013909
-0.003196 -1.038049 -0.099550
-0.003072 -0.534909 -0.033349
-0.003051 -0.521235 -0.032817
-0.002870 0.149565 0.031005
-0.002553 0.606218 -0.018747
-0.002163 0.719417 0.018633
-0.002143 -0.616215 -0.045019
-0.001887 -0.936357 -0.062664
-0.001391 0.999705 -0.020334
-0.001389 1.010852 0.004163
-0.000807 0.392992 0.024695
0.000039 1.192468 0.108123
0.000568 -0.824193 -0.078527
0.001492 -0.391447 -0.023458
0.001524 -0.370894 -0.022659
0.001857 -0.158514 -0.014402
0.002049 -1.098659 -0.106059
0.002107 0.591619 -0.003013
0.002682 -0.808523 -0.033245
0.002903 0.875251 0.017042
0.003254 -0.616061 -0.049209
0.004493 -1.284941 0.008130
0.004667 0.901360 0.017748
0.004982 0.713952 0.018161
0.005588 0.803810 0.019383
0.006018 0.494435 -0.014519
0.006032 0.222358 0.029479
0.006405 1.172351 0.067001
0.006481 0.663401 0.023192
0.006739 0.444662 0.017970
0.007340 -0.117252 -0.017012
0.007448 -0.048743 -0.014348
0.007827 0.963002 -0.002508
0.007994 -0.584076 -0.005157
0.008239 -0.682632 -0.005350
0.008719 0.087548 -0.017559
0.008735 -0.374243 -0.010011
0.009006 -0.759647 -0.022516
0.009748 0.653715 0.025119
0.010068 -0.465218 -0.010910
0.010182 -0.837390 -0.040220
0.010226 0.859571 0.048080
0.010367 -0.797882 -0.077405
0.010649 -1.252294 -0.072057
0.011498 -0.240369 -0.017494
0.011573 -0.192312 -0.015625
0.011584 -0.185447 -0.015358
0.011773 -1.120405 -0.106805
0.011972 -0.977956 -0.068756
0.012036 0.836893 0.054716
0.012215 -1.280593 0.018591
0.012668 0.670537 0.048353
0.012910 -0.021183 -0.017490
0.012963 0.013071 -0.016159
0.013006 0.040475 -0.015093
0.013087 -0.575465 -0.047540
0.013119 -0.554955 -0.046742
0.013195 0.586511 0.020303
0.013486 -0.950273 -0.114783
0.014582 -1.190329 -0.097030
0.015012 1.045044 0.010771
0.015403 -0.514425 -0.011851
0.015883 0.448395 0.019176
0.016840 0.701462 0.057086
0.017154 -0.096044 -0.016105
0.017315 -0.998469 -0.106225
0.018034 0.471587 0.017036
0.018042 0.903278 0.031801
0.018083 0.755016 0.069123
0.018103 -0.164899 -0.027291
0.018191 0.715549 0.042651
0.018318 -0.027879 -0.021964
0.018359 0.728850 0.048173
0.018463 0.805395 0.043567
0.018526 -0.554800 -0.050941
0.018586 0.143395 -0.015306
0.018609 0.844213 0.069462
0.018612 0.017052 0.018609
0.018650 -1.162056 -0.091647
0.018664 -0.471793 -0.011478
0.018726 0.541950 0.016321
0.018732 -1.075991 -0.073590
0.018754 0.818473 0.048922
0.018944 1.180488 -0.038196
0.018969 0.691124 0.079172
0.019044 0.297881 0.045879
0.019086 1.109062 -0.000821
0.019116 0.569762 0.017920
0.019259 0.081702 0.032789
0.019280 0.651165 0.052274
0.019284 -1.272646 -0.000281
0.019335 -1.245492 -0.111557
0.019349 0.664631 0.057911
0.019381 1.147378 0.025685
0.019405 -0.307900 0.015013
0.019411 -0.636065 -0.062575
0.019497 -0.581485 -0.060453
0.019523 0.691476 0.069112
0.019553 -0.744712 -0.016891
0.019562 -0.783178 -0.031240
0.019564 -0.941125 -0.112683
0.019572 0.670619 0.003465
0.019614 0.603401 0.010968
0.019638 1.162231 0.066127
0.019640 -1.215710 -0.139805
0.019811 0.651555 0.042239
0.019906 -1.248803 -0.082715
0.019921 -0.130388 0.003160
0.019955 1.177236 0.106808
0.020091 0.443370 -0.012135
0.020102 0.450207 -0.011869
0.020253 -0.730607 -0.074707
0.020285 -0.710182 -0.073913
0.020413 -1.260664 -0.149896
0.020434 -1.247247 -0.149374
0.020758 0.051534 0.029945
0.020769 0.737790 0.008614
0.020903 0.339350 -0.000714
0.021038 0.771738 0.004549
0.021072 -0.824751 -0.086806
0.021100 0.224966 0.034880
0.021167 -0.722986 -0.010724
0.021303 -1.252646 -0.064236
0.021487 -1.162575 -0.108362
0.021530 -1.135455 -0.107308
0.021540 -1.128675 -0.107044
0.021647 -1.060876 -0.104408
0.021678 -1.040536 -0.103617
0.021721 0.631412 0.005380
0.021760 0.809066 0.050963
0.021880 -0.911718 -0.098609
0.021904 -0.250371 0.011078
0.021976 -0.850698 -0.096237
0.022097 -1.253111 -0.074722
0.022111 -0.397958 -0.032065
0.022175 -0.356766 -0.030464
0.022197 -0.343036 -0.029930
0.022220 0.532051 0.018184
0.022267 -0.602516 -0.004371
0.022304 -0.274384 -0.027261
0.022358 -0.240058 -0.025926
0.022460 -0.962622 -0.062689
0.022520 -0.137080 -0.021923
0.022563 -0.109619 -0.020855
0.022595 -0.089023 -0.020054
0.022611 0.274068 0.005010
0.022660 -0.047832 -0.018453
0.022667 -0.998316 -0.110380
0.022699 -0.978019 -0.109591
0.022746 0.007090 -0.016318
0.022754 -1.133869 -0.086340
0.022806 -0.214032 0.012630
0.022918 -0.542713 -0.007125
0.022934 -1.280947 0.026460
0.022950 0.137529 -0.011247
0.022964 -0.520996 -0.045349
0.023007 -0.493592 -0.044283
0.023016 0.601231 0.027085
0.023082 -0.445635 -0.042419
0.023178 -0.059608 0.016179
0.023262 -1.192569 -0.126319
0.023280 0.431650 0.026016
0.023284 0.164929 0.050804
0.023289 1.062176 0.014073
0.023309 1.126980 0.004042
0.023329 -0.288062 -0.036293
0.023486 1.168697 0.099398
0.023498 -1.256960 -0.056231
0.023830 -0.008734 0.013427
0.023838 0.258353 0.045386
0.024090 0.897640 0.041134
0.024196 0.589450 0.079501
0.024254 0.575788 0.073733
0.024359 1.021763 0.017067
0.024583 -0.779185 -0.072335
0.024604 -0.765539 -0.071804
0.024642 -0.141414 0.004710
0.024772 1.142043 0.034818
0.024840 -0.615443 -0.065969
0.025099 -0.869798 -0.099099
0.025120 0.408197 0.033122
0.025150 0.120428 0.041637
0.025563 0.484546 -0.014739
0.025587 -0.334936 0.009134
0.025694 0.335295 0.053778
0.025821 0.508354 0.014154
0.025901 0.025876 0.024853
0.025987 0.563731 0.027491
0.026224 1.162654 -0.029794
0.026331 0.946624 0.015491
0.026428 -0.191787 -0.017487
0.026735 -1.295935 -0.150368
0.026785 0.941315 0.022681
0.026894 -1.105769 -0.081108
0.026999 -1.067503 -0.108836
0.027062 -1.026823 -0.107254
0.027065 -1.255684 -0.122552
0.027070 0.277210 0.049439
0.027111 -1.265157 -0.029674
0.027256 -0.997299 -0.068195
0.027282 -0.173091 0.011986
0.027327 -0.576139 -0.000452
0.027530 -0.404667 -0.036548
0.027534 -0.403589 -0.007698
0.028012 0.607267 0.082786
0.028208 0.027841 -0.019733
0.028216 1.192739 -0.050317
0.028451 0.607638 0.072647
0.028479 -0.459182 -0.047159
0.028522 -0.431778 -0.046094
0.028554 1.175432 0.123087
0.028705 0.788503 0.007988
0.028732 0.766504 0.081579
0.028884 0.368518 0.053500
0.029184 -0.691109 -0.008438
0.029295 -0.494931 -0.008674
0.029341 0.972714 0.006286
0.029377 0.498397 0.016001
0.029593 0.861372 0.027795
0.029751 0.289892 0.021236
0.029980 -0.779030 -0.076525
0.030001 -0.765385 -0.075995
0.030037 0.257581 0.011481
0.030171 0.891995 0.050489
0.030232 0.715035 0.014196
0.030383 0.541216 0.102457
0.030605 0.610390 0.110849
0.031524 0.192980 0.004298
0.031634 -0.647520 -0.007598
0.031736 0.743749 0.078185
0.031838 -0.362066 0.003202
0.032083 0.556859 0.057307
0.032167 0.160877 -0.005526
0.032383 0.679372 0.098408
0.032428 0.129113 0.047699
0.032428 -0.081453 0.019367
0.032515 -0.908090 -0.041746
0.032606 -0.911411 -0.106937
0.032810 0.652803 0.077095
0.032837 0.502251 0.023763
0.032897 0.783738 0.084451
0.033566 0.193114 0.050532
0.033687 0.998521 0.023291
0.033828 0.586602 0.117354
0.034324 0.810895 0.013273
0.034663 0.532040 0.083940
0.034837 1.073005 0.029113
0.035247 -0.695874 -0.072779
0.035874 0.709953 0.117100
0.036566 -1.050331 -0.059386
0.036589 -0.447934 0.000591
0.036763 -0.631490 -0.039752
0.036768 -1.096055 -0.109890
0.036900 0.534497 0.132829
0.037368 1.137291 0.105857
0.037451 -0.041276 0.018261
0.037975 -0.336992 0.017438
0.037997 0.814353 0.082636
0.038382 -0.211239 0.018703
0.038412 -0.390626 -0.044447
0.038473 -0.300215 0.019175
0.038755 1.134813 0.060110
0.038941 0.522906 0.065472
0.039097 0.765180 0.026792
0.039140 0.673487 0.108059
0.039400 1.140560 0.122631
0.040000 1.096513 0.020675
0.040106 -0.875482 -0.038933
0.040383 0.911439 0.053556
0.040397 0.727698 0.109937
0.040517 0.425390 0.047246
0.040864 0.725688 0.028875
0.041768 -0.103366 0.022548
0.041779 0.171058 0.020896
0.041802 0.686754 0.017819
0.041821 0.497936 0.092182
0.041922 0.022205 -0.012710
0.042510 0.844453 0.090653
0.042916 0.250558 0.052483
0.043248 0.940221 0.047326
0.043257 0.384767 0.075064
0.043273 -0.222394 0.020243
0.043447 0.370207 0.079287
0.043658 -0.016835 0.020802
0.044095 -0.274861 0.022327
0.044785 0.501092 0.120610
0.044813 1.110807 0.112741
0.044841 -0.946841 -0.098500
0.044984 -0.825693 -0.039325
0.045029 0.101791 -0.013239
0.045113 0.758647 0.108196
0.045601 -1.121595 -0.151296
0.045938 0.654112 0.112138
0.046169 0.969078 0.041021
0.046402 0.069792 -0.010990
0.046414 -0.343446 0.016881
0.046496 0.503430 0.059112
0.046942 -0.072734 -0.006940
0.046979 -1.034869 -0.053229
0.047200 1.150045 -0.008165
0.047855 -0.513031 -0.034757
0.048015 1.111546 0.083515
0.048033 0.331145 0.079185
0.048050 0.210731 0.051919
0.048114 0.186955 0.024732
0.048463 -0.290390 -0.018012
0.048528 -0.412167 0.000111
0.048538 -1.032340 -0.119594
0.048648 -1.221125 -0.128226
0.048681 -0.122282 -0.033985
0.048743 0.893434 0.074687
0.048765 0.491468 0.112259
0.048768 -0.104179 -0.005216
0.048876 -1.245073 -0.056782
0.048885 -0.239029 -0.013027
0.048907 1.121220 0.052275
0.049127 0.502377 0.042671
0.049176 0.064340 -0.000874
0.049254 -0.660997 -0.008762
0.049281 0.492230 0.091690
0.049332 0.122881 0.004839
0.049378 0.006098 -0.006792
0.049423 -1.221680 -0.138589
0.049463 0.741910 0.045500
0.049481 -0.975404 -0.099194
0.049496 0.278105 0.052514
0.049578 0.927777 0.070413
0.049581 0.946858 0.036106
0.049651 -0.831972 -0.068932
0.049676 1.077493 0.055964
0.049703 0.338171 0.032502
0.049755 0.602036 0.045381
0.049758 0.478747 0.075530
0.049804 -0.587708 -0.038167
0.049819 -0.563153 0.002242
0.049863 -0.187376 0.003630
0.049889 -1.239065 -0.148888
0.049915 -0.109597 0.022010
0.049966 0.213680 0.032638
0.050044 0.853601 0.076964
0.050167 0.259065 0.058303
0.050189 0.407175 0.086718
0.050199 0.450896 0.063632
0.050293 -0.725079 -0.041923
0.050309 0.997396 0.048092
0.050329 -1.248930 -0.038243
0.050431 1.108026 0.022189
0.050434 0.435847 0.061732
0.050567 -0.503622 -0.000762
0.050632 0.150547 0.068011
0.050720 -0.922014 -0.042949
0.050769 0.982413 0.014987
0.050891 -0.681417 -0.048672
0.050934 0.363972 0.089145
0.051022 0.305249 0.047835
0.051031 -1.119541 -0.106547
0.051199 -0.636732 -0.021972
0.051312 0.349779 0.083004
0.051378 0.957202 0.050755
0.051536 -0.354808 0.018369
0.051558 0.865726 0.080805
0.051668 -0.749642 -0.050881
0.051692 -0.022980 0.020272
0.051756 -0.218485 -0.006835
0.051895 0.121159 0.054940
0.051911 -0.999374 -0.108323
0.051921 0.240454 0.040542
0.051956 0.529756 0.050262
0.051979 0.630037 0.039889
0.052050 -0.899822 -0.036459
0.052139 0.663666 0.036232
0.052313 -0.057174 -0.014988
0.052436 -0.445051 0.007012
0.052477 -0.498383 -0.041942
0.052721 -0.370598 0.010970
0.052773 0.596104 0.056388
0.052975 -0.030906 -0.018937
0.053102 -1.300000 -0.143293
0.053121 -0.244756 0.023318
0.053275 -1.256724 -0.001019
0.053371 0.091177 0.052305
0.053415 0.425171 0.100686
0.053545 -0.300761 -0.010633
0.053566 -0.548192 -0.036503
0.053590 -0.402723 -0.032871
0.053633 -0.275186 -0.013930
0.053642 0.395850 0.119726
0.053646 0.011690 0.031669
0.053655 -0.855103 -0.034967
0.053786 -1.230256 -0.122676
0.053822 -0.428114 -0.041363
0.053832 -0.860920 -0.069359
0.053872 -1.154474 -0.154731
0.053925 -0.208441 0.024755
0.054012 0.381711 0.113646
0.054065 -1.098799 -0.144673
0.054071 0.764685 0.037785
0.054157 -0.453457 -0.049857
0.054224 -0.978863 -0.054885
0.054457 1.167987 -0.018513
0.054495 -1.047760 -0.040549
0.054560 0.798704 0.033764
0.054568 -0.478538 -0.046963
0.055030 -0.062514 -0.005080
0.055047 0.881043 0.097676
0.055202 -1.234009 -0.104321
0.055314 -1.087627 -0.055912
0.055430 0.691391 0.043616
0.055432 -0.810614 -0.033609
0.055475 -0.146103 -0.007817
0.055523 -1.100659 -0.101596
0.055544 -0.135854 0.016606
0.055653 0.359199 0.063529
0.055671 0.046186 0.042915
0.055783 -0.711453 -0.010195
0.055861 -0.313558 0.028951
0.055908 0.915334 0.093501
0.055973 -0.691284 -0.042054
0.055990 -0.331475 -0.009585
0.056056 0.170431 0.043342
0.056056 0.138583 0.020964
0.056412 -0.254711 -0.007699
0.056493 0.189311 0.065901
0.056495 -0.872460 -0.031868
0.056726 0.472222 0.095556
0.056730 0.724730 0.052907
0.056795 -0.802965 -0.049113
0.056915 -0.788717 -0.027348
0.057034 0.551674 0.055890
0.057133 0.618551 0.048998
0.057156 0.758622 0.049035
0.057253 -1.104944 -0.064529
0.057768 0.080508 0.054011
0.057849 -0.494130 0.006297
0.057883 -0.382000 0.012443
0.058114 -0.531875 0.004036
0.058124 0.386247 0.071373
0.058229 -0.783899 -0.053407
0.058367 0.835700 0.097911
0.058485 0.685387 0.054757
0.058569 -1.181766 -0.145571
0.058863 -1.247993 0.001374
0.058896 -0.438310 -0.034253
0.058898 0.223802 0.055517
0.059041 0.101243 0.008906
0.059181 -1.108104 -0.138878
0.059367 0.042731 0.015210
0.059593 0.314168 0.101355
0.059640 -0.488669 -0.039951
0.059683 1.155892 -0.008436
0.059724 -0.080678 0.033205
0.060114 -0.073169 0.002729
0.060268 0.461797 0.107792
0.060487 -1.289568 -0.134988
0.060815 -0.367569 -0.033994
0.061215 -0.563361 -0.031866
0.061590 -0.991688 -0.042257
0.061673 -0.162727 0.021862
0.061893 0.713134 0.062188
0.061916 0.282795 0.077405
0.062027 -1.094233 -0.134377
0.062203 -0.938058 -0.088126
0.062738 0.332454 0.115608
0.063431 -0.980733 -0.093346
0.063864 -0.026003 -0.007145
0.064015 -1.077937 -0.036393
0.064017 0.436978 0.124470
0.064160 -1.134272 -0.083569
0.064563 0.635091 0.052614
0.064603 -0.840383 0.000901
0.065031 -1.061481 -0.123036
0.065413 0.058443 0.019126
0.065770 -0.754763 -0.033511
0.066079 0.567305 0.085441
0.067246 0.307475 0.121773
0.068137 1.137450 0.013416
0.068485 0.734873 0.080854
0.068527 0.111422 0.035246
0.069074 -0.889763 -0.050645
0.069384 -0.691460 -0.006658
0.071418 -1.186432 -0.129745
0.071455 -0.311453 0.017739
0.071520 -0.769051 -0.012357
0.071848 0.033502 0.052443
0.072381 -0.475179 0.020344
0.073167 -0.953986 -0.029696
0.073345 1.125387 0.023432
0.073504 -0.416310 0.016853
0.074298 -0.626898 0.011144
0.074452 -0.612937 -0.006734
0.074466 -1.091824 -0.000416
0.074549 0.131573 0.087550
0.075002 0.254993 0.104805
0.075145 -1.136485 -0.132097
0.076040 0.158648 0.086508
0.077011 -0.754567 -0.002654
0.077100 -1.222569 -0.012736
0.077135 0.007793 0.047414
0.077544 -0.449217 0.023842
0.077617 -0.058061 0.043720
0.077889 0.217255 0.105010
0.078120 0.639711 0.078388
0.078666 -0.926960 -0.013618
0.078675 -0.820184 -0.014075
0.078681 0.089698 0.051478
0.078713 -0.865946 -0.033026
0.078735 -0.022190 0.033907
0.078794 -0.390544 0.020221
0.078953 -0.598493 -0.013695
0.079053 0.291667 0.112661
0.079061 0.042305 0.058594
0.079096 -0.301515 0.019719
0.079422 0.672888 0.087924
0.079433 -1.103836 -0.010840
0.079538 0.278181 0.085528
0.079704 0.533913 0.086444
0.079877 -1.182469 -0.129929
0.079882 0.434557 0.095560
0.080184 -0.647447 0.002282
0.080258 0.179871 0.092597
0.080336 -0.716141 -0.011376
0.080370 -0.836948 -0.022225
0.080481 0.303783 0.093665
0.080518 -1.224909 -0.065522
0.080531 -0.089863 0.062060
0.080606 1.143291 0.013145
0.080842 -0.369792 0.025568
0.080879 0.011963 0.055815
0.080916 -0.224475 0.057339
0.080940 0.116034 0.071980
0.081056 -0.089573 0.030055
0.081084 -0.198714 0.042086
0.081088 0.154916 0.100009
0.081122 -0.408438 0.006313
0.081158 0.633739 0.089468
0.081221 -1.225416 -0.076006
0.081276 -0.172877 0.026733
0.081332 -1.228261 -0.036452
0.081398 -0.053850 0.052203
0.081555 -0.332127 0.032352
0.081563 -0.617254 0.018374
0.081612 -1.204782 -0.118571
0.081788 -0.063411 0.026314
0.081824 -1.052835 -0.112846
0.081917 -0.754071 -0.006807
0.081977 -0.508909 0.005841
0.082198 -1.131684 -0.064617
0.082466 -1.014968 -0.099099
0.082759 -1.213788 -0.010369
0.082904 -0.995981 -0.092228
0.082961 -0.899512 -0.009053
0.082989 0.594717 0.090886
0.083122 -0.498323 0.023238
0.083412 -1.214229 -0.020987
0.083417 -0.070449 0.077473
0.083419 -0.976957 -0.085359
0.083515 -0.388370 0.001163
0.084044 0.095577 0.084532
0.084048 -1.252291 -0.123452
0.084054 -0.574042 0.018786
0.084188 -0.488920 0.012416
0.084316 -0.150871 0.034278
0.084539 -0.632836 0.006701
0.084619 -0.771224 -0.003577
0.084772 0.080779 0.077953
0.084837 -0.260674 0.032472
0.085425 -0.203344 0.047583
0.085802 1.131222 0.023162
0.085991 -0.418382 0.025224
0.086021 0.073505 0.057448
0.086245 -0.013826 0.050756
0.086364 -0.443675 0.027821
0.086423 -0.255678 0.049984
0.086739 -0.130801 0.039114
0.086782 -1.216632 -0.073711
0.086826 0.114926 0.088797
0.086927 0.483883 0.096414
0.086992 0.450815 0.099378
0.087476 -1.217152 -0.084183
0.087739 -0.183121 0.052512
0.087745 0.257911 0.078760
0.088016 0.319555 0.110239
0.088818 -0.607622 0.025581
0.088985 -0.547745 0.022494
0.089330 -0.045912 0.079876
0.089891 -0.287870 0.057351
0.089935 -0.549181 0.001605
0.090360 -0.488836 0.030251
0.091627 -0.352750 0.046868
0.091857 -0.822371 -0.005239
0.091979 -0.327281 0.055641
0.092822 -0.142101 0.046899
0.093041 0.218138 0.078404
0.093398 -0.861696 -0.008327
0.093418 -0.107056 0.063168
0.094119 -0.224906 0.078753
0.095328 -1.077009 -0.114089
0.095559 0.029124 0.078769
0.097025 -1.277679 -0.121362
0.097672 -0.103299 0.082484
0.098409 -0.261009 0.077454
0.099304 -0.170241 0.078459
0.100064 0.014649 0.085387
0.101609 -0.150111 0.083266
0.102027 -0.214867 0.080764
0.104669 -0.680375 0.004886
0.105575 -1.191802 -0.098277
0.106296 -0.409012 0.047866
0.107944 -0.301686 0.078105
0.108143 -0.032926 0.080512
0.109152 -0.317365 0.070862
0.109313 -1.199899 -0.071784
0.109962 -0.204816 0.082775
0.109965 -1.200431 -0.082267
0.110017 -0.281181 0.083171
0.110343 -0.654253 0.020004
0.110362 -0.692242 0.006251
0.110433 -1.209663 -0.113843
0.110967 -0.422526 0.041966
0.111259 -0.153108 0.076106
0.112383 -0.127180 0.084716
0.115444 -0.048917 0.086151
0.115548 -0.344417 0.065152
0.116270 -0.163651 0.083696
0.119076 -0.085671 0.085383
0.120389 -1.240411 -0.110008
